<?xml version="1.0" standalone="no"?>
<!DOCTYPE svg PUBLIC "-//W3C//DTD SVG 20010904//EN"
 "http://www.w3.org/TR/2001/REC-SVG-20010904/DTD/svg10.dtd">
<svg version="1.0" xmlns="http://www.w3.org/2000/svg"
 width="1280.000000pt" height="853.000000pt" viewBox="0 0 1280.000000 853.000000"
 preserveAspectRatio="xMidYMid meet">
<metadata>
Created by potrace 1.15, written by Peter Selinger 2001-2017
</metadata>
<g transform="translate(0.000000,853.000000) scale(0.100000,-0.100000)"
fill="#8bc34a" stroke="none">
<path d="M1140 8511 c0 -10 8 -21 18 -25 9 -3 40 -18 68 -34 64 -35 189 -84
279 -110 110 -31 201 -49 475 -92 140 -22 275 -44 300 -49 25 -6 92 -17 150
-26 58 -8 130 -20 160 -25 343 -60 873 -93 1918 -120 355 -8 921 0 1327 20
790 38 1216 36 1770 -10 66 -5 280 -21 475 -35 195 -13 416 -29 490 -34 74 -6
212 -15 305 -21 180 -12 742 -56 835 -66 30 -3 98 -14 150 -24 52 -10 98 -16
103 -13 4 2 7 -1 7 -6 0 -6 15 -11 33 -11 17 -1 57 -9 87 -20 30 -11 62 -19
70 -20 16 0 127 -32 200 -56 43 -15 184 -50 320 -79 174 -38 497 -66 615 -54
155 16 275 42 275 60 0 4 11 10 25 13 14 4 25 13 25 21 0 8 7 15 15 15 8 0 15
7 15 15 0 8 5 15 10 15 6 0 10 14 10 30 0 17 -4 30 -10 30 -5 0 -10 9 -10 20
0 11 -7 20 -15 20 -8 0 -15 7 -15 15 0 8 -4 15 -10 15 -5 0 -10 7 -10 15 0 8
-6 15 -14 15 -7 0 -27 14 -44 30 -18 17 -36 30 -42 30 -5 0 -10 7 -10 15 0 8
-7 15 -15 15 -8 0 -15 7 -15 15 0 8 -4 15 -10 15 -5 0 -10 11 -10 25 0 16 -6
25 -15 25 -11 0 -15 11 -15 40 0 22 -4 40 -10 40 -5 0 -10 9 -10 20 0 11 -5
20 -10 20 -6 0 -22 11 -36 25 -46 46 -225 113 -391 146 -23 4 -85 22 -138 40
-91 30 -95 33 -95 60 0 27 7 32 36 28 4 0 10 3 13 8 3 5 26 14 51 20 32 7
-1390 11 -4817 12 -4756 1 -4863 1 -4863 -18z"/>
<path d="M4445 6450 c-3 -10 -22 -29 -41 -40 -18 -12 -34 -27 -34 -33 0 -22
130 -136 182 -160 29 -14 100 -40 158 -58 58 -18 142 -45 187 -61 45 -16 126
-35 180 -43 54 -9 118 -22 143 -29 25 -8 115 -33 200 -56 85 -23 184 -51 220
-61 143 -40 490 -132 565 -149 136 -31 190 -49 241 -83 75 -49 136 -77 168
-77 60 0 270 -69 376 -124 25 -13 115 -47 200 -76 187 -63 364 -146 405 -190
50 -53 78 -63 141 -50 52 11 60 10 172 -28 64 -22 178 -59 252 -82 154 -47
319 -113 370 -147 19 -13 39 -23 45 -23 47 0 96 -28 155 -89 62 -63 136 -103
150 -82 22 34 123 48 170 24 31 -16 35 -23 36 -58 1 -34 4 -39 20 -36 105 23
347 -40 577 -150 44 -21 86 -35 97 -32 52 14 110 -29 110 -80 0 -62 -33 -86
-209 -153 -35 -14 -75 -33 -88 -44 -13 -10 -38 -22 -56 -25 -63 -13 -65 -15
-76 -63 -5 -25 -7 -50 -5 -54 3 -4 31 -5 63 -2 39 5 61 3 65 -5 11 -18 36 -13
36 7 0 25 28 48 68 57 33 7 93 32 237 99 114 53 169 68 233 63 52 -4 223 -57
299 -92 17 -8 62 -25 100 -36 37 -12 93 -34 124 -49 110 -56 245 -107 299
-113 37 -5 68 -16 96 -36 23 -16 52 -32 65 -36 13 -5 40 -18 60 -31 20 -12 70
-33 110 -45 41 -12 121 -42 179 -66 58 -24 128 -51 155 -60 28 -8 97 -37 155
-63 58 -26 147 -57 199 -69 112 -27 266 -89 336 -135 58 -39 118 -61 208 -76
69 -11 166 -40 213 -65 16 -8 32 -15 37 -15 4 0 7 60 7 133 l0 133 -57 18
c-32 10 -92 34 -133 53 -41 19 -98 39 -127 43 -29 5 -60 13 -70 18 -10 5 -54
18 -98 27 -78 17 -170 51 -305 112 -36 16 -99 40 -140 53 -261 81 -356 115
-407 146 -31 19 -62 39 -67 44 -6 6 -18 10 -29 10 -10 0 -35 8 -55 19 -20 10
-95 38 -167 61 -71 24 -199 76 -283 117 -84 40 -157 73 -163 73 -5 0 -67 23
-137 52 -70 28 -175 68 -233 89 -100 35 -148 60 -210 110 -15 12 -44 25 -65
29 -68 14 -147 49 -169 74 -27 33 -87 56 -147 56 -37 0 -74 10 -137 39 -47 21
-101 42 -119 46 -21 4 -37 16 -44 31 -6 13 -18 26 -27 29 -9 3 -39 24 -66 48
-51 46 -55 58 -56 177 -1 14 -6 69 -11 123 l-11 97 -47 0 c-68 0 -81 -18 -70
-95 5 -33 14 -79 21 -102 11 -35 11 -52 0 -95 -17 -66 -26 -78 -61 -78 -42 0
-59 9 -83 45 -12 17 -39 47 -60 65 l-38 33 -30 -32 c-21 -23 -35 -31 -47 -26
-9 4 -24 9 -32 11 -116 25 -223 54 -300 81 -114 41 -134 47 -225 63 -44 8 -87
23 -114 41 -25 16 -70 36 -100 45 -131 36 -166 50 -209 79 -87 58 -145 82
-213 88 -42 4 -83 15 -113 31 -39 21 -56 24 -92 19 -37 -5 -51 -2 -74 16 -30
22 -114 55 -293 116 -55 19 -104 38 -110 43 -7 5 -42 21 -79 36 -37 15 -97 40
-133 57 -36 16 -88 33 -116 36 -40 5 -53 11 -61 28 -13 30 -126 68 -173 59
-24 -4 -67 6 -166 41 -74 26 -156 50 -184 55 -27 4 -77 17 -110 29 -33 12 -96
30 -141 41 -45 11 -101 27 -125 36 -24 8 -73 22 -109 29 -36 8 -110 28 -165
45 -55 17 -138 38 -185 45 -166 28 -320 74 -445 135 -248 121 -326 144 -340
100z"/>
<path d="M5303 5680 c-154 -80 -208 -130 -261 -243 -22 -46 -49 -113 -61 -150
-11 -37 -26 -77 -32 -89 -24 -44 -86 -97 -156 -132 -71 -35 -135 -92 -162
-144 -14 -26 -29 -42 -43 -42 -16 0 -90 128 -100 174 -15 74 -73 178 -118 215
-49 39 -96 42 -109 7 -10 -25 -30 -36 -65 -36 -59 0 -53 -60 13 -123 26 -25
62 -73 80 -106 33 -62 33 -66 31 -224 -2 -115 3 -128 55 -154 l45 -22 20 21
c11 12 20 25 20 29 0 4 7 10 16 13 19 7 54 -10 54 -28 0 -7 -26 -49 -58 -92
-52 -70 -162 -298 -162 -334 0 -6 -22 -55 -49 -108 -27 -54 -62 -126 -79 -162
-31 -71 -46 -88 -88 -99 -35 -9 -41 -26 -15 -41 15 -8 26 -7 41 2 15 10 22 10
32 0 10 -10 10 -19 -1 -45 -7 -17 -12 -36 -11 -42 4 -20 13 -291 12 -375 -1
-279 -2 -298 -17 -334 -30 -70 5 -55 59 25 51 76 114 157 134 171 11 7 36 48
57 91 41 85 55 97 110 97 33 0 101 31 145 65 8 7 35 20 59 29 49 19 71 10 71
-31 0 -13 7 -56 16 -96 19 -80 50 -119 129 -160 55 -28 165 -152 206 -233 29
-56 64 -99 128 -158 14 -13 21 -32 21 -56 0 -23 7 -41 20 -53 11 -9 20 -25 20
-36 0 -26 19 -39 70 -47 56 -8 70 -19 70 -53 0 -39 25 -68 81 -96 27 -14 49
-29 49 -34 0 -5 35 -11 78 -14 53 -4 106 -16 170 -40 105 -39 113 -44 92 -57
-19 -12 -429 -3 -444 9 -17 13 -121 21 -366 26 -124 3 -243 10 -265 15 -61 14
-174 15 -188 1 -15 -15 -70 -14 -86 2 -9 8 -58 12 -174 12 -117 0 -191 6 -267
19 -58 11 -131 19 -163 17 -33 -1 -64 3 -71 8 -8 7 -25 7 -51 0 -23 -7 -60 -8
-90 -4 -27 4 -67 9 -87 11 -47 4 -108 29 -108 44 0 25 -85 49 -171 49 -46 -1
-95 3 -109 9 -16 6 -35 6 -53 -1 -23 -8 -34 -6 -56 10 -14 11 -46 30 -70 43
-38 19 -49 20 -86 11 -55 -14 -127 -4 -185 25 -26 13 -73 25 -110 28 -83 8
-138 19 -170 36 -54 28 -117 80 -149 124 -36 48 -61 59 -61 27 0 -25 -26 -45
-47 -36 -10 4 -28 9 -41 11 -13 3 -41 16 -63 31 -23 15 -56 27 -80 28 -32 2
-49 11 -79 40 -22 21 -47 55 -56 74 -83 179 -107 222 -117 212 -34 -34 -68 7
-83 98 -6 35 -10 41 -31 41 -27 0 -58 14 -86 38 -24 21 -102 41 -120 31 -8 -5
-26 -24 -41 -43 l-26 -35 77 -78 c87 -86 113 -120 113 -145 0 -29 -119 -141
-192 -181 -37 -21 -70 -42 -74 -48 -12 -20 31 -49 91 -60 33 -6 64 -15 70 -20
5 -5 11 -33 12 -61 2 -61 11 -72 52 -63 27 6 30 9 25 35 -5 22 -1 31 15 39 12
7 21 20 21 31 0 21 43 44 103 55 43 8 83 -23 97 -76 6 -22 17 -39 25 -39 24 0
86 -61 101 -101 14 -33 20 -38 62 -44 34 -5 55 -16 77 -40 17 -18 47 -36 65
-40 58 -13 118 -43 130 -64 8 -15 21 -21 46 -21 47 0 88 -19 158 -73 49 -39
62 -45 78 -36 32 17 291 -9 361 -37 21 -8 75 -16 120 -18 45 -3 100 -11 122
-20 51 -19 104 -20 129 -1 17 13 23 13 44 -1 21 -14 33 -14 86 -4 33 6 95 11
136 12 99 1 372 -19 433 -32 26 -5 68 -10 92 -10 24 0 56 -5 71 -10 18 -7 31
-7 37 -1 6 6 35 8 66 6 269 -22 331 -28 364 -36 20 -6 207 -11 415 -13 207 -2
442 -9 522 -15 80 -6 253 -18 385 -27 132 -8 267 -20 300 -25 33 -6 76 -12 95
-14 82 -9 130 -18 130 -25 0 -7 -53 -17 -145 -26 -22 -3 -42 -9 -43 -15 -3 -6
-9 -6 -18 2 -11 9 -14 9 -14 -1 0 -10 -3 -10 -15 0 -12 10 -15 10 -15 0 0 -7
-7 -10 -16 -6 -9 4 -23 1 -30 -5 -10 -8 -14 -8 -14 -1 0 11 -50 9 -69 -2 -5
-3 -54 -7 -110 -8 -60 -1 -101 -6 -101 -12 0 -6 -5 -5 -12 2 -17 17 -38 15
-38 -3 0 -11 -14 -14 -67 -13 -185 2 -317 -3 -303 -12 11 -7 7 -10 -20 -11
-68 -4 -640 -4 -630 -1 19 7 -1 22 -28 21 -24 0 -25 -1 -7 -9 26 -11 39 -10
-255 -25 -145 -7 -180 -14 -84 -16 l59 -2 -45 -7 c-25 -4 -64 -6 -88 -3 -24 3
-68 0 -98 -7 -34 -8 -58 -10 -62 -4 -4 5 -32 9 -62 10 -30 0 -45 -1 -32 -4 12
-2 22 -7 22 -11 0 -4 -100 -8 -222 -10 -123 -1 -252 -6 -288 -11 -81 -12 -89
-12 -71 -1 13 9 -56 8 -497 -2 -56 -1 -60 -2 -40 -14 22 -12 21 -13 -17 -12
-22 0 -87 -2 -145 -5 -58 -3 -111 -6 -118 -6 -7 0 -10 -5 -7 -10 4 -6 34 -8
78 -4 52 5 69 3 62 -4 -7 -7 -72 -12 -180 -13 -164 -1 -216 -10 -183 -30 8 -6
-2 -9 -27 -10 -22 -1 -31 -3 -20 -6 76 -17 50 -32 -71 -42 l-99 -8 83 -2 c45
0 82 -5 82 -10 0 -5 -35 -8 -77 -6 -43 1 -58 0 -33 -2 71 -7 73 -23 3 -23 -44
0 -62 -4 -66 -14 -3 -8 -1 -17 6 -19 7 -2 -15 -3 -48 -1 -57 2 -57 2 -15 -5
30 -5 36 -8 18 -9 -30 -2 -49 -22 -21 -22 13 -1 10 -5 -11 -17 -22 -11 -48
-14 -100 -11 -39 2 -63 3 -53 1 9 -3 17 -8 17 -13 0 -5 10 -10 23 -12 12 -2
-15 -8 -60 -12 -73 -7 -81 -10 -78 -27 3 -13 -3 -23 -18 -29 -18 -7 -19 -9 -4
-9 10 -1 16 -5 13 -10 -4 -5 0 -12 6 -14 7 -3 -9 -6 -37 -8 l-50 -2 40 -7 c39
-7 38 -7 -20 -10 l-60 -3 65 -7 65 -7 -75 -3 -75 -3 65 -7 65 -7 -60 -3 c-52
-2 -55 -4 -25 -9 31 -5 33 -7 15 -15 -18 -8 -16 -10 15 -16 20 -4 -36 -8 -128
-9 -111 -1 -161 2 -157 9 4 6 15 8 26 5 10 -4 19 -2 19 3 0 6 -30 10 -66 11
-54 0 -65 -2 -60 -14 4 -12 -11 -15 -87 -17 l-92 -2 83 -3 c94 -4 104 -22 14
-25 l-57 -2 70 -5 70 -6 -75 -10 -75 -9 60 -6 c33 -4 47 -7 31 -8 -34 -2 -25
-18 14 -25 17 -3 10 -5 -20 -7 -45 -3 -44 -3 15 -10 l60 -7 -70 -1 c-64 -2
-68 -3 -49 -16 11 -8 45 -17 75 -19 49 -3 47 -4 -21 -6 -112 -4 -134 -19 -30
-21 47 -1 105 -5 130 -9 38 -6 26 -8 -75 -15 -154 -9 -177 -13 -89 -15 186 -3
262 -30 91 -32 -98 -1 -89 -16 11 -18 33 -1 59 -7 68 -16 14 -13 13 -15 -8
-17 -22 -1 -31 -3 -53 -8 -5 -2 13 -6 40 -10 l50 -7 -47 -1 c-59 -2 -64 -21
-5 -24 l42 -1 -45 -6 -45 -7 35 -11 c33 -10 30 -11 -40 -12 -94 -1 -81 -18 17
-23 101 -5 116 -24 27 -33 -72 -8 -123 -35 -66 -35 51 0 122 -12 122 -21 0 -5
-24 -9 -52 -10 -57 0 -116 -17 -68 -18 56 -2 376 22 383 29 4 4 -34 10 -85 15
-51 4 -127 10 -168 14 l-75 6 95 8 c52 5 129 10 170 13 41 3 76 7 79 9 10 11
-11 17 -83 22 -42 3 -79 9 -81 13 -2 4 35 10 84 13 49 4 97 10 107 14 16 6 15
8 -11 14 -16 4 -58 7 -92 8 -94 2 -76 18 27 23 119 7 139 21 45 31 -27 3 -52
7 -55 8 -11 4 58 17 97 18 54 1 68 21 16 22 -21 0 -47 4 -58 8 -24 10 45 20
149 23 39 1 53 3 31 5 -166 13 -189 16 -165 24 14 4 77 8 140 10 116 2 113 4
-40 15 -135 11 -61 22 170 25 l205 3 -222 5 c-122 3 -225 9 -229 14 -4 4 53 8
127 8 74 1 148 5 164 9 18 5 -26 8 -114 9 -79 0 -142 3 -140 6 3 2 105 7 228
9 123 3 226 8 229 11 3 3 -95 5 -218 5 -123 0 -221 2 -219 4 3 3 108 7 233 10
224 6 308 14 170 18 -50 1 -57 2 -24 5 100 8 67 18 -75 23 l-150 6 185 3 c105
2 174 6 160 11 -14 4 -46 5 -72 2 -34 -3 -48 -1 -48 7 0 8 17 12 53 11 71 -2
81 2 27 10 -30 5 15 8 130 11 l175 3 -175 6 -175 6 190 4 190 4 -175 6 -175 6
190 4 190 4 -170 6 -170 6 260 4 c210 3 239 5 150 10 -60 3 -105 8 -100 10 6
2 -44 6 -110 10 -112 5 -103 6 132 14 199 7 253 11 257 22 3 8 -1 14 -11 14
-9 0 -13 3 -9 8 4 4 110 10 234 13 l227 5 -188 2 c-122 1 -186 5 -182 12 4 6
84 10 206 10 190 0 200 1 195 18 -9 27 31 42 122 44 l77 2 -80 6 -80 6 95 3
c65 2 87 6 70 11 -18 6 -5 8 45 9 49 0 65 -2 55 -9 -8 -5 -10 -10 -5 -11 6 -1
-15 -5 -45 -9 -37 -5 -9 -7 85 -6 77 0 103 2 57 3 -72 3 -81 6 -68 18 17 17
56 20 56 5 0 -6 27 -10 63 -9 46 1 56 3 37 9 -17 5 6 8 68 9 112 1 123 19 15
23 -43 2 39 2 183 -1 191 -3 263 -1 268 7 5 9 -64 12 -275 12 -155 0 -280 2
-278 4 2 3 321 7 709 11 388 3 715 8 728 11 13 2 20 9 17 14 -4 6 -74 10 -167
10 -89 0 -159 2 -156 5 2 3 148 6 324 7 178 1 282 5 234 8 -91 7 -91 13 0 12
54 0 55 0 15 8 l-40 8 45 -3 c25 -2 76 -7 114 -10 83 -6 99 -15 30 -16 l-49
-1 40 -13 40 -13 -35 -4 c-34 -5 -33 -5 10 -8 43 -3 42 -3 -20 -10 -36 -4
-117 -9 -180 -11 l-115 -3 145 -6 145 -6 -140 -3 c-89 -1 -133 -6 -120 -11 11
-5 38 -9 60 -10 31 -1 35 -3 20 -9 -11 -5 -33 -4 -50 0 -44 13 -53 11 -60 -11
-5 -15 -15 -20 -45 -20 -44 0 -72 -9 -65 -20 3 -4 -2 -21 -10 -36 -13 -26 -13
-29 3 -35 12 -5 5 -9 -23 -13 -67 -12 -71 -14 -34 -15 25 -1 36 -6 36 -16 0
-11 -13 -15 -51 -15 -87 0 -100 -35 -16 -43 37 -3 33 -4 -25 -7 -67 -3 -68 -3
-25 -10 l45 -7 -50 -3 c-45 -2 -47 -3 -20 -10 l30 -8 -35 -2 -35 -2 30 -8 30
-8 -35 -2 c-29 -1 -32 -3 -15 -10 19 -8 19 -9 -2 -9 -33 -1 -38 -21 -6 -23 16
0 7 -4 -22 -8 l-50 -7 43 -1 c23 -1 42 -7 42 -12 0 -6 -20 -9 -45 -8 -25 0
-48 -2 -52 -5 -3 -4 18 -7 47 -7 67 0 59 -10 -17 -20 l-58 -7 70 -3 70 -3 -85
-12 -85 -12 68 -2 c89 -1 79 -21 -11 -22 -80 -1 -58 -16 28 -20 50 -2 48 -2
-29 -10 -90 -9 -118 -18 -55 -20 21 -1 50 -5 64 -9 21 -7 18 -8 -20 -10 -25 0
-63 -5 -85 -9 -38 -7 -37 -8 35 -16 l75 -8 -45 -8 c-25 -4 -70 -8 -100 -9
l-55 -2 40 -9 c22 -4 57 -8 78 -8 20 -1 37 -5 37 -10 0 -9 -76 -20 -160 -22
-47 -2 -41 -4 45 -14 55 -7 102 -13 105 -15 11 -6 -101 -18 -180 -20 -112 -2
-153 -18 -49 -19 104 -1 203 -12 188 -22 -7 -4 -77 -10 -155 -14 -79 -4 -141
-11 -138 -16 3 -5 26 -9 52 -9 83 0 212 -13 207 -20 -3 -4 -61 -11 -130 -15
-114 -6 -150 -15 -127 -29 4 -3 54 -8 110 -12 56 -4 99 -10 97 -14 -3 -4 -54
-9 -115 -12 -162 -7 -174 -39 -20 -54 81 -8 74 -22 -12 -23 -26 -1 -58 -6 -72
-12 -27 -13 -455 3 -478 17 -20 13 113 33 227 34 55 1 109 5 120 10 17 7 16 9
-10 9 -106 3 -361 23 -373 30 -18 10 43 20 183 31 83 6 90 7 40 9 -99 4 -291
26 -280 33 6 3 49 9 98 13 48 4 85 10 82 15 -3 4 -47 11 -97 15 -121 8 -148
17 -88 26 25 4 68 8 97 8 90 2 66 18 -35 24 -53 3 -108 9 -122 12 -14 4 -20 3
-14 -2 6 -4 8 -17 4 -28 -5 -13 -1 -24 14 -36 20 -17 20 -18 2 -37 -10 -12
-15 -26 -11 -31 19 -31 23 -100 6 -110 -12 -8 -3 -81 10 -81 15 0 10 -40 -6
-56 -17 -18 -20 -50 -5 -59 6 -3 7 -17 4 -31 -4 -16 -2 -25 7 -26 8 0 -8 -4
-36 -8 l-50 -7 46 -1 47 -2 -8 -34 c-4 -18 -11 -39 -15 -46 -5 -8 1 -19 16
-31 l23 -17 -34 -10 c-19 -6 -27 -11 -18 -11 10 -1 17 -4 16 -8 -5 -20 13 -73
25 -73 26 0 117 -31 117 -40 0 -11 -93 -40 -129 -40 -18 0 -22 -3 -13 -9 10
-6 10 -10 -2 -20 -25 -21 10 -47 79 -61 66 -13 115 -35 115 -50 0 -11 1602
-14 1613 -3 12 11 -39 30 -104 38 -35 4 -131 9 -214 10 -238 5 -461 28 -492
50 -16 12 -14 14 22 23 58 16 365 41 475 40 98 -1 160 8 160 22 0 14 -43 20
-155 20 -60 0 -191 7 -290 15 -99 8 -188 15 -198 15 -10 0 -15 5 -12 10 3 6
19 10 35 10 46 0 45 19 -2 27 -42 6 -43 7 -13 14 17 4 77 13 135 20 119 13
113 23 -22 34 -48 4 -102 10 -120 14 -30 7 -27 8 29 15 93 11 97 46 6 46 -23
0 -45 5 -48 10 -3 6 4 10 18 10 14 0 39 3 58 7 28 5 30 7 14 14 -11 4 -36 8
-55 9 -32 2 -31 3 15 11 75 14 77 16 65 38 -8 15 -25 22 -70 27 -98 11 -89 26
23 39 52 6 57 9 57 31 0 17 -7 25 -25 30 -27 7 -34 24 -10 24 8 0 15 7 15 15
0 8 4 15 9 15 4 0 6 11 3 25 -2 15 0 25 7 25 7 0 10 4 7 9 -3 5 9 12 27 16
l32 8 -40 6 c-37 6 -41 10 -36 41 0 6 28 10 61 10 33 0 60 4 60 10 0 6 -23 10
-50 10 -36 0 -52 4 -57 15 -8 23 -3 25 68 26 85 2 125 17 49 19 -30 1 -73 4
-95 8 -69 13 -20 26 107 30 65 2 116 7 114 11 -3 4 -51 8 -108 9 -189 4 -165
29 32 32 142 3 168 18 35 20 -60 1 -120 1 -132 1 -11 -1 -24 2 -27 7 -5 9 117
20 249 23 l60 2 -60 7 c-33 4 -94 9 -135 10 l-75 3 50 7 c28 5 151 9 275 11
l225 3 -175 7 c-96 3 -209 8 -250 9 l-75 3 75 7 c41 4 161 9 265 10 l190 3
-239 8 c-131 4 -241 11 -244 14 -3 3 109 6 249 7 140 1 266 2 282 2 15 1 27 4
27 8 0 5 -116 9 -257 10 l-258 1 263 8 c145 4 266 10 269 13 4 3 -94 6 -217 6
-123 0 -221 2 -219 4 2 3 97 6 211 7 114 1 213 6 220 11 7 4 -19 8 -60 8 -41
0 -71 4 -68 9 3 5 15 7 26 4 11 -3 37 -2 57 3 37 8 36 9 -27 14 l-65 7 58 1
c31 1 57 6 57 11 0 5 -10 7 -22 4 -15 -3 -10 2 11 13 34 18 35 18 10 25 -23 7
-23 7 6 9 26 1 27 3 10 10 -11 5 -14 9 -6 9 8 1 11 8 9 19 -4 15 3 17 56 15
l61 -1 -61 7 c-33 4 -66 11 -72 15 -23 14 -1 26 46 26 34 0 43 3 32 10 -12 7
-8 10 15 10 20 0 26 3 17 9 -20 12 70 21 253 23 106 1 129 3 68 5 -51 2 -93 8
-93 13 0 5 -24 11 -52 12 -29 2 30 2 132 0 175 -4 186 -3 208 16 23 21 120 38
247 45 33 2 -25 3 -130 2 -162 -2 -174 -1 -80 5 61 4 137 9 170 10 l60 3 -50
7 c-35 5 -6 7 94 8 79 1 142 4 139 7 -3 3 -50 10 -104 14 -85 7 -67 8 131 9
134 1 236 -2 245 -8 8 -5 11 -10 6 -10 -5 0 -3 -6 3 -14 8 -10 9 -16 1 -21 -6
-3 -8 -11 -5 -16 4 -5 2 -9 -4 -9 -5 0 -8 -9 -6 -20 2 -11 1 -20 -3 -20 -4 0
-7 -26 -7 -57 0 -32 -4 -61 -10 -65 -6 -5 -5 -8 4 -8 11 0 11 -3 1 -15 -10
-12 -10 -15 1 -15 11 0 11 -2 -1 -10 -8 -5 -10 -10 -4 -10 7 0 11 -11 10 -25
0 -14 -5 -25 -10 -25 -5 0 -4 -6 3 -13 8 -10 7 -17 -1 -25 -7 -7 -8 -12 -2
-12 12 0 13 -153 1 -161 -5 -3 -2 -13 6 -21 11 -10 12 -19 5 -32 -7 -13 -5
-22 7 -36 15 -17 15 -19 -4 -25 -28 -9 -26 -23 4 -31 30 -7 32 -20 5 -29 -24
-8 -26 -23 -4 -32 10 -4 14 -13 10 -28 -4 -14 0 -28 9 -35 13 -10 12 -15 -8
-30 l-22 -18 43 -17 c47 -19 47 -24 -1 -40 -42 -13 -38 -27 13 -45 49 -18 53
-32 11 -44 -49 -14 -46 -33 10 -51 27 -9 49 -20 49 -25 0 -5 -16 -14 -35 -20
-53 -17 -44 -37 25 -57 33 -9 59 -21 57 -27 -2 -5 -25 -17 -52 -26 -27 -9 -50
-21 -53 -28 -4 -12 65 -35 157 -52 30 -6 57 -13 60 -16 8 -7 -21 -24 -43 -24
-29 0 -140 -30 -151 -41 -6 -7 -5 -13 4 -18 17 -11 144 -39 185 -40 13 -1 16
-6 12 -18 -4 -9 -1 -20 6 -25 16 -10 -7 -28 -37 -28 -26 0 -86 -17 -105 -30
-24 -17 14 -38 81 -46 33 -4 59 -10 59 -14 0 -5 -34 -16 -75 -25 -41 -9 -73
-21 -70 -26 4 -5 164 -9 390 -9 309 0 384 3 388 13 3 8 39 24 81 36 42 13 74
27 70 32 -3 5 5 9 18 9 13 0 29 4 37 9 10 7 8 12 -10 25 -13 9 -33 16 -44 16
-16 0 -17 2 -5 10 12 8 10 10 -8 10 -28 0 -62 17 -62 30 0 6 20 15 44 22 25 6
43 15 41 19 -3 3 14 9 36 12 83 11 71 49 -18 63 -26 4 -40 10 -33 14 7 4 9 16
6 27 -6 18 -1 21 44 25 29 3 59 13 68 22 15 15 15 17 -3 30 -11 8 -39 20 -62
25 -24 6 -43 13 -43 15 0 3 25 12 55 21 32 9 59 23 65 35 9 16 6 22 -21 35
-25 13 -28 19 -18 31 6 8 20 14 31 14 16 0 18 3 9 13 -6 8 -8 17 -4 20 3 4 0
14 -7 22 -10 12 -10 19 -2 27 15 15 16 94 2 103 -5 3 -10 12 -10 18 0 7 4 6
10 -3 7 -11 10 -7 10 17 0 17 -4 35 -10 38 -5 3 -10 11 -10 16 0 6 4 8 9 4 17
-10 21 11 7 31 -10 13 -11 24 -4 38 7 13 7 16 -1 12 -7 -4 -11 1 -11 13 0 12
5 21 10 21 19 0 10 18 -11 23 -23 6 -17 27 7 27 24 0 15 17 -13 25 l-28 8 30
12 30 13 -29 8 c-28 7 -28 8 -10 21 13 9 15 16 8 21 -7 4 -11 18 -10 32 1 14
-3 29 -9 33 -6 6 -5 10 4 14 10 4 8 9 -10 19 l-24 13 25 1 c24 1 24 1 -5 15
l-30 13 30 3 c24 1 26 3 8 6 -24 5 -32 23 -10 23 8 0 9 3 1 8 -6 4 -10 15 -8
25 1 10 -4 17 -14 18 -10 1 -7 4 8 9 25 8 25 8 -5 10 -30 2 -30 2 -5 10 l25 8
-25 2 c-23 1 -23 2 -5 10 11 5 15 9 10 9 -6 1 -12 18 -13 38 -2 21 -7 39 -12
41 -6 2 -10 10 -10 18 0 8 -9 14 -20 14 -25 0 -26 15 -2 25 16 6 16 7 -2 21
-11 8 -29 14 -40 14 -19 1 -19 2 3 14 24 13 24 14 4 20 -30 10 -37 44 -9 49
20 4 20 4 -2 6 -13 0 -30 8 -38 16 -14 13 -14 16 0 21 14 6 14 8 -4 24 -11 9
-17 20 -13 24 3 3 0 6 -7 6 -10 0 -11 3 -3 11 7 7 3 18 -16 37 l-26 27 58 3
c32 2 64 -2 71 -7 18 -15 124 6 155 31 20 15 21 18 6 18 -10 0 -16 3 -13 6 10
9 90 13 128 7 33 -6 34 -7 10 -14 -18 -5 -7 -7 35 -8 33 -1 90 -8 127 -17 66
-16 138 -13 138 6 0 10 58 7 129 -5 32 -6 42 -5 37 3 -5 8 1 12 16 12 16 0 19
-3 10 -9 -10 -6 -8 -10 10 -14 32 -9 50 -8 44 1 -3 5 22 5 55 0 34 -4 86 -4
117 1 31 5 63 6 71 3 9 -3 12 -1 7 6 -10 16 26 15 94 -2 36 -8 124 -13 255
-14 128 -1 201 -5 203 -12 2 -5 14 -10 27 -10 20 0 67 -15 84 -27 2 -1 -2 -9
-9 -18 -10 -13 -9 -15 8 -15 26 0 39 -19 21 -31 -10 -6 -4 -9 17 -9 32 0 54
24 31 34 -7 2 8 5 33 6 l45 2 -39 12 c-52 16 -29 26 62 27 47 0 61 3 47 9 -20
8 -19 9 1 9 12 1 37 4 55 7 23 4 30 3 21 -4 -22 -15 38 -22 177 -21 85 1 113
4 86 9 -39 7 -39 7 -7 9 18 0 42 -3 52 -9 12 -6 27 -6 42 -1 17 7 19 10 6 10
-10 1 -18 6 -18 11 0 13 37 13 42 0 2 -5 26 -6 63 -1 45 7 64 6 75 -4 9 -8 34
-12 65 -10 45 4 47 3 15 -5 -27 -6 -16 -8 45 -5 44 1 91 6 105 9 21 5 22 5 5
-3 -22 -10 174 -18 317 -12 42 2 85 -2 95 -8 17 -10 17 -10 0 -11 -10 0 -15
-5 -12 -10 8 -12 363 -13 420 0 28 6 13 7 -50 3 -72 -4 -88 -3 -78 7 13 14
208 21 271 10 l37 -7 -50 -7 c-84 -12 -83 -14 5 -15 101 -2 133 -8 126 -27 -4
-11 10 -14 72 -13 64 2 70 3 37 9 -22 4 -33 8 -25 9 13 1 13 2 0 11 -18 12 18
13 98 3 39 -4 52 -10 48 -19 -4 -11 24 -14 153 -14 l159 0 1 318 2 318 -158
-23 c-108 -16 -195 -22 -273 -21 -74 1 -123 -2 -136 -10 -61 -33 -381 -37
-474 -5 -42 14 -51 14 -120 -5 -57 -16 -115 -22 -242 -26 -92 -2 -172 -7 -178
-11 -12 -8 -292 -28 -380 -28 -69 0 -219 19 -252 32 -14 5 -29 6 -34 1 -9 -9
-95 -20 -154 -21 -57 -1 -164 34 -198 65 -22 19 -24 19 -50 4 -15 -9 -29 -27
-32 -39 -4 -18 -17 -25 -63 -36 -32 -7 -67 -18 -79 -24 -21 -11 -336 -33 -468
-32 -36 0 -123 1 -195 1 -267 1 -352 2 -410 4 -88 2 -205 -12 -244 -29 -52
-24 -107 -12 -142 30 -38 46 -104 57 -161 27 -55 -28 -88 -27 -88 4 0 14 5 28
11 32 6 4 27 39 45 78 19 39 48 92 64 118 45 69 97 283 121 498 39 356 35 540
-17 715 -21 72 -35 100 -76 157 -10 14 -10 24 0 51 18 49 15 73 -12 115 -14
20 -46 95 -72 167 -53 147 -72 181 -140 248 -71 68 -208 176 -246 192 -18 7
-89 16 -158 20 -111 7 -133 5 -196 -14 -83 -24 -131 -26 -200 -7 -27 7 -76 19
-109 26 -33 7 -73 16 -90 22 -16 5 -86 13 -155 19 -69 5 -143 12 -165 14 -29
4 -34 3 -20 -4 18 -8 17 -9 -10 -13 -27 -3 -22 -8 60 -49 50 -26 101 -50 115
-54 21 -6 238 -104 355 -161 44 -21 149 -118 182 -167 47 -69 75 -138 77 -187
1 -37 -5 -54 -34 -93 -55 -77 -70 -103 -92 -159 -78 -205 -137 -413 -142 -501
-2 -28 -9 -83 -17 -122 -9 -49 -13 -162 -13 -370 0 -259 3 -305 17 -339 21
-48 21 -53 -2 -65 -12 -7 -30 -7 -55 0 -24 7 -55 7 -93 0 -39 -7 -76 -8 -113
-1 -30 5 -91 15 -135 21 -74 10 -123 19 -282 54 -34 8 -97 25 -140 38 -99 31
-239 65 -323 77 -81 11 -195 36 -209 45 -18 11 -12 67 10 91 16 17 19 29 14
58 -6 31 -11 36 -35 36 -40 0 -88 28 -105 61 -18 34 -40 36 -75 9 -31 -24 -58
-25 -82 -3 -16 14 -23 15 -38 5 -32 -19 -57 -14 -79 17 -11 16 -50 42 -88 60
-51 25 -87 53 -146 114 -117 122 -112 109 -112 272 0 162 -5 178 -84 272 -39
46 -51 68 -46 82 8 27 165 173 234 217 31 20 74 54 96 74 72 66 112 93 121 78
5 -7 7 -24 5 -36 -2 -21 0 -23 21 -17 12 4 33 18 44 32 22 26 44 24 44 -3 0
-8 7 -14 15 -14 8 0 18 0 22 -1 4 0 11 13 15 30 9 34 62 83 82 75 8 -3 16 7
22 28 7 24 16 34 34 36 29 5 49 29 50 58 0 12 7 27 16 35 11 9 15 29 13 78 -3
73 10 89 36 44 15 -27 16 -27 10 -3 -39 167 -42 201 -13 172 16 -16 29 -15 27
1 -3 26 2 37 16 37 13 0 13 5 -1 38 -9 20 -21 64 -25 96 -5 33 -17 71 -27 84
-24 35 -27 40 -57 104 -24 53 -25 59 -12 91 18 43 89 99 147 117 40 13 79 44
132 109 14 17 60 26 381 77 49 7 92 16 97 19 5 3 57 12 115 20 99 13 167 38
134 49 -33 12 -294 24 -554 25 l-280 2 -20 24 c-11 13 -33 44 -49 70 -31 51
-98 99 -161 116 -22 6 -76 22 -120 36 -60 19 -110 27 -200 30 l-120 6 -122
-63z m3470 -3777 c-7 -2 -21 -2 -30 0 -10 3 -4 5 12 5 17 0 24 -2 18 -5z m240
0 c-7 -2 -21 -2 -30 0 -10 3 -4 5 12 5 17 0 24 -2 18 -5z m540 0 c-7 -2 -19
-2 -25 0 -7 3 -2 5 12 5 14 0 19 -2 13 -5z m-4910 -10 c-7 -2 -19 -2 -25 0 -7
3 -2 5 12 5 14 0 19 -2 13 -5z m4240 -10 c-7 -2 -19 -2 -25 0 -7 3 -2 5 12 5
14 0 19 -2 13 -5z m755 0 c-10 -2 -26 -2 -35 0 -10 3 -2 5 17 5 19 0 27 -2 18
-5z m-6051 -49 c-3 -3 -12 -4 -19 -1 -8 3 -5 6 6 6 11 1 17 -2 13 -5z m6940 0
c-3 -3 -12 -4 -19 -1 -8 3 -5 6 6 6 11 1 17 -2 13 -5z m-5012 -64 l-30 -7 30
-5 30 -5 -32 -2 c-31 -1 -41 7 -26 22 3 4 18 6 32 6 25 -1 25 -2 -4 -9z m398
3 c-7 -2 -21 -2 -30 0 -10 3 -4 5 12 5 17 0 24 -2 18 -5z m-1290 -40 c-7 -2
-21 -2 -30 0 -10 3 -4 5 12 5 17 0 24 -2 18 -5z m440 0 c-23 -2 -64 -2 -90 0
-26 2 -7 3 42 3 50 0 71 -1 48 -3z m2297 -43 c10 -6 -69 -9 -230 -8 l-245 2
215 6 c118 3 222 7 230 8 8 1 22 -3 30 -8z m-3517 -27 c-13 -2 -35 -2 -50 0
-16 2 -5 4 22 4 28 0 40 -2 28 -4z m-316 -69 c-3 -3 -12 -4 -19 -1 -8 3 -5 6
6 6 11 1 17 -2 13 -5z m3001 -1 c-10 -2 -26 -2 -35 0 -10 3 -2 5 17 5 19 0 27
-2 18 -5z m-1 -29 c-3 -3 -12 -4 -19 -1 -8 3 -5 6 6 6 11 1 17 -2 13 -5z m-59
-11 c-16 -2 -40 -2 -55 0 -16 2 -3 4 27 4 30 0 43 -2 28 -4z m-3315 -10 c-7
-2 -19 -2 -25 0 -7 3 -2 5 12 5 14 0 19 -2 13 -5z m-143 -53 c21 -7 19 -8 -15
-8 -22 0 -60 3 -85 7 l-45 8 60 1 c33 0 71 -4 85 -8z m-690 -170 c0 -5 -20
-10 -45 -10 -25 0 -45 5 -45 10 0 6 20 10 45 10 25 0 45 -4 45 -10z m-425 -40
c-4 -6 -58 -10 -131 -10 -76 0 -124 4 -124 10 0 6 50 10 131 10 84 0 128 -4
124 -10z m425 -14 c14 -2 -42 -3 -125 -3 -102 0 -128 2 -80 6 66 6 148 4 205
-3z m3485 4 c15 -6 7 -9 -30 -9 -36 -1 -46 2 -35 9 18 12 38 12 65 0z m-3943
-22 c-28 -6 -75 -6 -130 0 l-87 9 130 1 c106 0 122 -2 87 -10z m-29 -25 c-35
-2 -91 -2 -125 0 -35 2 -7 3 62 3 69 0 97 -1 63 -3z m22 -33 c-7 -12 -119 -12
-155 0 -17 5 6 8 68 9 60 1 91 -3 87 -9z m-32 -37 c-24 -2 -62 -2 -85 0 -24 2
-5 4 42 4 47 0 66 -2 43 -4z m-20 -40 c-13 -2 -33 -2 -45 0 -13 2 -3 4 22 4
25 0 35 -2 23 -4z m2986 -472 l34 -18 -38 -13 c-44 -15 -352 -9 -394 7 -23 9
-23 10 -5 19 16 7 138 15 324 22 27 1 59 -6 79 -17z m0 -105 c10 -12 8 -17 -8
-26 -38 -20 -411 1 -378 22 1 0 72 4 157 8 85 3 169 7 186 8 17 1 37 -4 43
-12z m-19 -131 c0 -16 -29 -19 -92 -9 -60 10 -44 24 27 24 51 0 65 -3 65 -15z"/>
<path d="M5780 1970 c0 -5 5 -10 11 -10 5 0 7 5 4 10 -3 6 -8 10 -11 10 -2 0
-4 -4 -4 -10z"/>
<path d="M5840 1970 c0 -5 5 -10 11 -10 5 0 7 5 4 10 -3 6 -8 10 -11 10 -2 0
-4 -4 -4 -10z"/>
<path d="M5288 1943 c6 -2 18 -2 25 0 6 3 1 5 -13 5 -14 0 -19 -2 -12 -5z"/>
<path d="M5360 1940 c0 -5 7 -7 15 -4 8 4 15 8 15 10 0 2 -7 4 -15 4 -8 0 -15
-4 -15 -10z"/>
<path d="M5448 1943 c7 -3 16 -2 19 1 4 3 -2 6 -13 5 -11 0 -14 -3 -6 -6z"/>
<path d="M4228 1903 c6 -2 18 -2 25 0 6 3 1 5 -13 5 -14 0 -19 -2 -12 -5z"/>
<path d="M4353 1903 c9 -2 25 -2 35 0 9 3 1 5 -18 5 -19 0 -27 -2 -17 -5z"/>
<path d="M4288 1883 c7 -3 16 -2 19 1 4 3 -2 6 -13 5 -11 0 -14 -3 -6 -6z"/>
<path d="M8748 1873 c7 -3 16 -2 19 1 4 3 -2 6 -13 5 -11 0 -14 -3 -6 -6z"/>
<path d="M2597 1799 c8 -8 16 -8 30 0 16 9 14 10 -11 11 -22 0 -27 -3 -19 -11z"/>
<path d="M11288 1783 c6 -2 18 -2 25 0 6 3 1 5 -13 5 -14 0 -19 -2 -12 -5z"/>
<path d="M11463 1783 c15 -2 39 -2 55 0 15 2 2 4 -28 4 -30 0 -43 -2 -27 -4z"/>
<path d="M10155 1721 c-3 -5 -2 -12 3 -15 13 -8 53 5 46 15 -7 12 -41 12 -49
0z"/>
<path d="M12256 1722 c-8 -13 29 -18 89 -11 28 3 41 7 29 7 -12 1 -41 5 -66 8
-27 4 -48 2 -52 -4z"/>
<path d="M12500 1721 c0 -24 290 -27 298 -3 3 9 -31 12 -147 12 -85 0 -151 -4
-151 -9z"/>
<path d="M5536 1712 c5 -5 43 -5 84 -2 l75 7 -84 1 c-47 1 -81 -2 -75 -6z"/>
<path d="M4640 1670 c37 -12 220 -12 220 0 0 6 -47 10 -122 9 -77 -1 -114 -4
-98 -9z"/>
<path d="M4898 1673 c12 -2 32 -2 45 0 12 2 2 4 -23 4 -25 0 -35 -2 -22 -4z"/>
<path d="M12768 1673 c6 -2 18 -2 25 0 6 3 1 5 -13 5 -14 0 -19 -2 -12 -5z"/>
<path d="M4398 1643 c7 -3 16 -2 19 1 4 3 -2 6 -13 5 -11 0 -14 -3 -6 -6z"/>
<path d="M4693 1643 c9 -2 25 -2 35 0 9 3 1 5 -18 5 -19 0 -27 -2 -17 -5z"/>
<path d="M4068 1603 c12 -2 30 -2 40 0 9 3 -1 5 -23 4 -22 0 -30 -2 -17 -4z"/>
<path d="M2173 1593 c9 -2 23 -2 30 0 6 3 -1 5 -18 5 -16 0 -22 -2 -12 -5z"/>
<path d="M6673 1543 c9 -2 25 -2 35 0 9 3 1 5 -18 5 -19 0 -27 -2 -17 -5z"/>
<path d="M3493 1493 c9 -2 23 -2 30 0 6 3 -1 5 -18 5 -16 0 -22 -2 -12 -5z"/>
<path d="M3063 1433 c9 -2 23 -2 30 0 6 3 -1 5 -18 5 -16 0 -22 -2 -12 -5z"/>
<path d="M5278 1423 c7 -3 16 -2 19 1 4 3 -2 6 -13 5 -11 0 -14 -3 -6 -6z"/>
<path d="M3063 1413 c9 -2 23 -2 30 0 6 3 -1 5 -18 5 -16 0 -22 -2 -12 -5z"/>
<path d="M1588 1403 c12 -2 32 -2 45 0 12 2 2 4 -23 4 -25 0 -35 -2 -22 -4z"/>
<path d="M1578 1383 c12 -2 30 -2 40 0 9 3 -1 5 -23 4 -22 0 -30 -2 -17 -4z"/>
<path d="M1603 1363 c15 -2 39 -2 55 0 15 2 2 4 -28 4 -30 0 -43 -2 -27 -4z"/>
<path d="M1577 1343 c18 -2 50 -2 70 0 21 2 7 4 -32 4 -38 0 -55 -2 -38 -4z"/>
<path d="M1451 1326 c7 -8 98 -10 105 -3 4 4 -19 7 -51 7 -32 0 -56 -2 -54 -4z"/>
<path d="M1850 1320 c0 -13 20 -13 40 0 12 8 9 10 -12 10 -16 0 -28 -4 -28
-10z"/>
<path d="M2330 1190 c20 -13 67 -13 75 0 4 6 -12 10 -42 10 -35 0 -44 -3 -33
-10z"/>
<path d="M4128 1173 c7 -3 16 -2 19 1 4 3 -2 6 -13 5 -11 0 -14 -3 -6 -6z"/>
<path d="M4163 1133 c9 -2 25 -2 35 0 9 3 1 5 -18 5 -19 0 -27 -2 -17 -5z"/>
<path d="M2348 1113 c6 -2 18 -2 25 0 6 3 1 5 -13 5 -14 0 -19 -2 -12 -5z"/>
<path d="M4140 1101 c8 -6 28 -11 44 -11 39 0 31 6 -19 14 -29 5 -36 4 -25 -3z"/>
<path d="M5833 1073 c9 -2 25 -2 35 0 9 3 1 5 -18 5 -19 0 -27 -2 -17 -5z"/>
<path d="M4151 1056 c-12 -14 -10 -16 15 -15 16 0 49 4 74 8 l45 8 -40 2 c-22
1 -49 4 -61 7 -12 3 -26 -1 -33 -10z"/>
<path d="M4152 1008 c6 -17 61 -22 113 -9 l40 9 -40 1 c-22 1 -57 4 -79 7 -29
5 -37 3 -34 -8z"/>
<path d="M12640 890 c37 -12 150 -12 150 0 0 6 -35 10 -87 9 -60 -1 -80 -4
-63 -9z"/>
<path d="M12435 830 l-60 -7 71 -1 c39 -1 132 -5 206 -8 120 -6 135 -5 141 10
6 14 -8 16 -146 14 -84 -1 -179 -4 -212 -8z"/>
<path d="M12305 761 l-60 -7 55 -6 c30 -4 155 -10 277 -14 221 -6 222 -6 216
15 -5 21 -10 21 -217 19 -116 -1 -238 -4 -271 -7z"/>
<path d="M1558 728 c30 -5 51 -12 49 -15 -3 -2 -27 -8 -54 -13 -57 -11 163 -4
262 7 l60 7 -55 9 c-30 5 -113 10 -185 12 -109 3 -122 2 -77 -7z"/>
<path d="M12424 689 c-154 -5 -339 -13 -410 -17 l-129 -9 105 -2 c58 0 211 -5
340 -11 394 -16 470 -17 470 -3 0 9 -21 13 -75 13 -43 0 -75 4 -75 10 0 6 30
10 69 10 39 0 73 5 76 10 4 6 -12 9 -42 8 -26 0 -174 -5 -329 -9z"/>
<path d="M1503 638 c-2 -5 8 -9 24 -9 21 -1 23 -3 8 -6 -11 -3 -24 -10 -30
-15 -7 -7 35 -8 130 -3 129 6 180 17 144 29 -24 9 -271 11 -276 4z"/>
<path d="M12520 609 c-118 -4 -365 -12 -549 -17 -183 -6 -335 -13 -338 -15 -2
-3 51 -8 119 -11 68 -3 218 -10 333 -16 116 -6 246 -13 290 -17 75 -6 77 -7
40 -15 -22 -4 -247 -14 -500 -22 -415 -14 -572 -22 -563 -32 6 -5 326 -23 610
-34 153 -6 285 -13 295 -17 39 -15 -54 -23 -382 -33 -453 -13 -770 -29 -797
-39 -34 -12 45 -19 357 -31 268 -10 536 -28 544 -36 11 -10 -20 -13 -269 -23
-876 -37 -1141 -51 -1158 -60 -18 -10 92 -19 358 -31 554 -24 689 -35 673 -51
-25 -25 -1380 -83 -1623 -69 -85 5 -231 11 -325 13 l-170 5 200 -13 c157 -11
202 -17 211 -30 10 -13 62 -15 412 -15 243 0 402 4 404 9 7 20 459 49 1098 71
594 20 577 31 -105 70 -302 17 -486 33 -478 41 13 13 352 37 613 43 370 9 771
27 794 36 27 10 -52 15 -544 35 -431 17 -530 24 -530 35 0 11 138 17 735 36
281 8 514 19 519 25 24 23 26 23 -479 39 -323 11 -418 22 -275 33 47 4 233 12
415 18 181 6 333 13 337 15 4 3 8 13 8 23 0 16 -13 19 -107 24 -58 4 -140 7
-182 8 -42 0 -94 4 -116 8 -38 7 -35 8 35 14 41 4 139 9 218 13 78 4 145 11
148 15 3 5 -10 8 -28 7 -18 -1 -130 -5 -248 -9z"/>
<path d="M1492 531 c-10 -6 -8 -10 10 -14 29 -8 144 -7 183 2 28 6 27 7 -19
14 -66 9 -158 9 -174 -2z"/>
<path d="M9474 190 l0 -23 135 7 c126 6 151 9 140 21 -3 2 -66 7 -140 11
l-135 7 0 -23z"/>
</g>
</svg>
